<svg width="135" height="110" viewBox="0 0 135 110" fill="none" xmlns="http://www.w3.org/2000/svg">
<rect x="7" y="20" width="121" height="90" rx="10" fill="#EB913A" fill-opacity="0.3"/>
<rect width="135" height="100" rx="10" fill="#EB913A"/>
<path d="M50.6076 46.3843C48.6496 49.1281 47.4987 52.491 47.4987 56.1142V60.87H38.0034V57.3664C37.9963 57.2398 38.0034 57.1202 38.0034 57.0006C38.0034 51.0417 42.8177 46.2225 48.7549 46.2225C49.3865 46.2225 50.0041 46.2788 50.6076 46.3843Z" fill="white"/>
<path d="M54.8605 39.0325C53.892 40.538 52.3832 41.6566 50.6146 42.121C50.0181 42.2828 49.4075 42.3672 48.7619 42.3672C48.1162 42.3672 47.5057 42.2828 46.9091 42.121H46.9021C43.7932 41.3049 41.4983 38.4556 41.4983 35.0786C41.4983 31.0615 44.7476 27.7971 48.7619 27.7971C49.8286 27.7971 50.8392 28.0293 51.7516 28.4443C51.6393 29.1127 51.5831 29.8021 51.5831 30.5057C51.5831 33.7841 52.8253 36.7741 54.8675 39.0325H54.8605Z" fill="white"/>
<path d="M87.4169 35.0786C87.4169 38.4556 85.122 41.3049 82.013 42.121H82.006C81.4095 42.2828 80.7989 42.3672 80.1533 42.3672C79.5076 42.3672 78.8971 42.2828 78.3005 42.121H78.2935C76.4267 41.6355 74.8547 40.4114 73.9003 38.7862C75.8232 36.556 76.9741 33.6645 76.9741 30.5057C76.9741 29.8584 76.925 29.2182 76.8338 28.5991C77.8303 28.0855 78.9602 27.7971 80.1533 27.7971C84.1676 27.7971 87.4169 31.0615 87.4169 35.0786Z" fill="white"/>
<path d="M72.7633 30.5057C72.7633 32.37 72.1598 34.0937 71.1492 35.4937C70.7001 36.1128 70.1737 36.6686 69.5772 37.147C68.1175 38.3149 66.2787 39.0114 64.2716 39.0114C62.4048 39.0114 60.6854 38.4134 59.2888 37.3862C58.7063 36.9711 58.187 36.4786 57.7379 35.9299C56.5167 34.4595 55.7869 32.567 55.7869 30.5057C55.7869 30.168 55.8079 29.8303 55.85 29.4996C55.9272 28.782 56.1027 28.0855 56.3623 27.4313C57.5835 24.2513 60.6644 22 64.2716 22C67.8788 22 71.1352 24.385 72.2861 27.7056C72.5388 28.4162 72.6932 29.1619 72.7423 29.9429C72.7563 30.1258 72.7633 30.3157 72.7633 30.5057Z" fill="white"/>
<path d="M72.5177 46.6165C70.2649 47.6015 68.2438 49.0155 66.5524 50.7533C65.3804 51.9422 64.3698 53.286 63.5558 54.7493C62.6855 56.276 62.0329 57.9293 61.6188 59.674C61.5346 59.9906 61.4714 60.3072 61.4153 60.6308H51.7094V56.5363C51.7024 56.3956 51.7094 56.2549 51.7094 56.1142C51.7094 53.0186 52.8183 50.1834 54.664 47.9954C55.1272 47.4537 55.6325 46.9472 56.1728 46.4828C56.7413 46.0044 57.3449 45.5753 57.9905 45.2095C59.8362 44.1331 61.9837 43.521 64.2716 43.521C66.5595 43.521 68.8684 44.1823 70.7632 45.3291C71.3878 45.709 71.9703 46.1381 72.5177 46.6165Z" fill="white"/>
<path d="M93.0103 56.67C92.2593 55.3544 91.3119 54.1724 90.2031 53.1593C87.5573 50.7181 84.0343 49.2266 80.1533 49.2266C79.9638 49.2266 79.7673 49.2336 79.5778 49.2407C78.8269 49.2688 78.083 49.3532 77.3672 49.494C76.6514 49.6276 75.9566 49.8105 75.2828 50.0497C73.3389 50.7251 71.5844 51.7945 70.1036 53.1593C69.0018 54.1654 68.0543 55.3473 67.3034 56.6559C66.5876 57.88 66.0542 59.2167 65.7173 60.6308C65.5489 61.3133 65.4296 62.0168 65.3664 62.7414C65.3243 63.1917 65.3033 63.649 65.3033 64.1133C65.3033 64.3595 65.3033 64.6058 65.3243 64.852C65.3243 64.9294 65.3314 65.0138 65.3384 65.0912C65.8366 72.8582 72.2862 79 80.1533 79C88.0205 79 94.47 72.8582 94.9683 65.0912C94.9893 64.7676 95.0034 64.444 95.0034 64.1133C95.0034 61.4047 94.2805 58.8579 93.0103 56.67ZM88.4556 60.87C88.3714 61.0248 88.2661 61.1655 88.1328 61.2992L84.3501 65.0912L79.5498 69.9104C79.1357 70.3184 78.6023 70.5295 78.062 70.5295C77.5216 70.5295 76.9812 70.3184 76.5742 69.9104L72.1739 65.4993C72.0476 65.3726 71.9423 65.239 71.8651 65.0912C71.8089 65.0138 71.7668 64.9364 71.7388 64.852C71.4721 64.254 71.5002 63.5575 71.83 62.9806C71.8721 62.8962 71.9212 62.8188 71.9844 62.7414C72.0405 62.664 72.1037 62.5866 72.1739 62.5163C72.995 61.6932 74.3284 61.6932 75.1495 62.5163L75.6127 62.9806L77.4865 64.852L77.7251 65.0912L78.062 65.4289L85.1571 58.3162C85.9782 57.4931 87.3117 57.4931 88.1328 58.3162C88.8205 59.0057 88.9328 60.061 88.4556 60.87Z" fill="white"/>
</svg>
