<svg width="135" height="110" viewBox="0 0 135 110" fill="none" xmlns="http://www.w3.org/2000/svg">
<rect x="7" y="20" width="121" height="90" rx="10" fill="#EB913A" fill-opacity="0.3"/>
<rect width="135" height="100" rx="10" fill="#EB913A"/>
<path d="M73.7603 30.5057C73.7603 32.37 73.1568 34.0937 72.1462 35.4937C71.697 36.1128 71.1707 36.6686 70.5741 37.147C69.1144 38.3149 67.2757 39.0114 65.2685 39.0114C63.4018 39.0114 61.6824 38.4134 60.2858 37.3862C59.7033 36.9711 59.184 36.4786 58.7348 35.9299C57.5137 34.4595 56.7838 32.567 56.7838 30.5057C56.7838 30.168 56.8049 29.8303 56.847 29.4996C56.9242 28.782 57.0996 28.0855 57.3593 27.4313C58.5804 24.2513 61.6613 22 65.2685 22C68.8758 22 72.1321 24.385 73.2831 27.7056C73.5357 28.4162 73.6901 29.1619 73.7392 29.9429C73.7533 30.1258 73.7603 30.3157 73.7603 30.5057Z" fill="white"/>
<path d="M73.5147 46.6165C71.2619 47.6015 69.2407 49.0155 67.5494 50.7533C66.3774 51.9422 65.3668 53.286 64.5527 54.7493C63.6825 56.276 63.0298 57.9293 62.6157 59.674C62.5315 59.9906 62.4684 60.3072 62.4122 60.6308H52.7064V56.5363C52.6993 56.3956 52.7064 56.2549 52.7064 56.1142C52.7064 53.0186 53.8152 50.1834 55.6609 47.9954C56.1241 47.4537 56.6294 46.9472 57.1698 46.4828C57.7383 46.0044 58.3418 45.5753 58.9875 45.2095C60.8332 44.1331 62.9807 43.521 65.2685 43.521C67.5564 43.521 69.8653 44.1823 71.7602 45.3291C72.3848 45.709 72.9673 46.1381 73.5147 46.6165Z" fill="white"/>
<path d="M94.0071 56.67C93.2562 55.3544 92.3088 54.1724 91.1999 53.1593C88.5542 50.7181 85.0311 49.2266 81.1502 49.2266C80.9607 49.2266 80.7642 49.2336 80.5747 49.2407C79.8238 49.2688 79.0799 49.3532 78.3641 49.494C77.6482 49.6276 76.9535 49.8105 76.2797 50.0497C74.3358 50.7251 72.5813 51.7945 71.1005 53.1593C69.9986 54.1654 69.0512 55.3473 68.3003 56.6559C67.5845 57.88 67.0511 59.2167 66.7142 60.6308C66.5458 61.3133 66.4265 62.0168 66.3633 62.7414C66.3212 63.1917 66.3002 63.649 66.3002 64.1133C66.3002 64.3595 66.3002 64.6058 66.3212 64.852C66.3212 64.9294 66.3282 65.0138 66.3353 65.0912C66.8335 72.8582 73.2831 79 81.1502 79C89.0174 79 95.4669 72.8582 95.9652 65.0912C95.9862 64.7676 96.0002 64.444 96.0002 64.1133C96.0002 61.4047 95.2774 58.8579 94.0071 56.67ZM89.4525 60.87C89.3683 61.0248 89.263 61.1655 89.1296 61.2992L85.347 65.0912L80.5467 69.9104C80.1326 70.3184 79.5992 70.5295 79.0589 70.5295C78.5185 70.5295 77.9781 70.3184 77.571 69.9104L73.1708 65.4993C73.0444 65.3726 72.9392 65.239 72.862 65.0912C72.8058 65.0138 72.7637 64.9364 72.7357 64.852C72.469 64.254 72.497 63.5575 72.8269 62.9806C72.869 62.8962 72.9181 62.8188 72.9813 62.7414C73.0374 62.664 73.1006 62.5866 73.1708 62.5163C73.9919 61.6932 75.3253 61.6932 76.1464 62.5163L76.6096 62.9806L78.4834 64.852L78.722 65.0912L79.0589 65.4289L86.154 58.3162C86.9751 57.4931 88.3085 57.4931 89.1296 58.3162C89.8174 59.0057 89.9297 60.061 89.4525 60.87Z" fill="white"/>
</svg>
