<svg width="135" height="110" viewBox="0 0 135 110" fill="none" xmlns="http://www.w3.org/2000/svg">
<rect x="7" y="20" width="121" height="90" rx="10" fill="#EB913A" fill-opacity="0.3"/>
<rect width="135" height="100" rx="10" fill="#EB913A"/>
<path d="M55.6076 49.3843C53.6496 52.1281 52.4987 55.491 52.4987 59.1142V63.87H43.0034V60.3664C42.9963 60.2398 43.0034 60.1202 43.0034 60.0006C43.0034 54.0417 47.8177 49.2225 53.7549 49.2225C54.3865 49.2225 55.0041 49.2788 55.6076 49.3843Z" fill="white"/>
<path d="M59.8605 42.0325C58.892 43.538 57.3832 44.6566 55.6146 45.121C55.0181 45.2828 54.4075 45.3672 53.7619 45.3672C53.1162 45.3672 52.5057 45.2828 51.9091 45.121H51.9021C48.7932 44.3049 46.4983 41.4556 46.4983 38.0786C46.4983 34.0615 49.7476 30.7971 53.7619 30.7971C54.8286 30.7971 55.8392 31.0293 56.7516 31.4443C56.6393 32.1127 56.5831 32.8021 56.5831 33.5057C56.5831 36.7841 57.8253 39.7741 59.8675 42.0325H59.8605Z" fill="white"/>
<path d="M92.4169 38.0786C92.4169 41.4556 90.122 44.3049 87.013 45.121H87.006C86.4095 45.2828 85.7989 45.3672 85.1533 45.3672C84.5076 45.3672 83.8971 45.2828 83.3005 45.121H83.2935C81.4267 44.6355 79.8547 43.4114 78.9003 41.7862C80.8232 39.556 81.9741 36.6645 81.9741 33.5057C81.9741 32.8584 81.925 32.2182 81.8338 31.5991C82.8303 31.0855 83.9602 30.7971 85.1533 30.7971C89.1676 30.7971 92.4169 34.0615 92.4169 38.0786Z" fill="white"/>
<path d="M77.7633 33.5057C77.7633 35.37 77.1598 37.0937 76.1492 38.4937C75.7001 39.1128 75.1737 39.6686 74.5772 40.147C73.1175 41.3149 71.2787 42.0114 69.2716 42.0114C67.4048 42.0114 65.6854 41.4134 64.2888 40.3862C63.7063 39.9711 63.187 39.4786 62.7379 38.9299C61.5167 37.4595 60.7869 35.567 60.7869 33.5057C60.7869 33.168 60.8079 32.8303 60.85 32.4996C60.9272 31.782 61.1027 31.0855 61.3623 30.4313C62.5835 27.2513 65.6644 25 69.2716 25C72.8788 25 76.1352 27.385 77.2861 30.7056C77.5388 31.4162 77.6932 32.1619 77.7423 32.9429C77.7563 33.1258 77.7633 33.3157 77.7633 33.5057Z" fill="white"/>
<path d="M77.5177 49.6165C75.2649 50.6015 73.2438 52.0155 71.5524 53.7533C70.3804 54.9422 69.3698 56.286 68.5558 57.7493C67.6855 59.276 67.0329 60.9293 66.6188 62.674C66.5346 62.9906 66.4714 63.3072 66.4153 63.6308H56.7094V59.5363C56.7024 59.3956 56.7094 59.2549 56.7094 59.1142C56.7094 56.0186 57.8183 53.1834 59.664 50.9954C60.1272 50.4537 60.6325 49.9472 61.1728 49.4828C61.7413 49.0044 62.3449 48.5753 62.9905 48.2095C64.8362 47.1331 66.9837 46.521 69.2716 46.521C71.5595 46.521 73.8684 47.1823 75.7632 48.3291C76.3878 48.709 76.9703 49.1381 77.5177 49.6165Z" fill="white"/>
<path d="M98.0103 59.67C97.2593 58.3544 96.3119 57.1724 95.2031 56.1593C92.5573 53.7181 89.0343 52.2266 85.1533 52.2266C84.9638 52.2266 84.7673 52.2336 84.5778 52.2407C83.8269 52.2688 83.083 52.3532 82.3672 52.494C81.6514 52.6276 80.9566 52.8105 80.2828 53.0497C78.3389 53.7251 76.5844 54.7945 75.1036 56.1593C74.0018 57.1654 73.0543 58.3473 72.3034 59.6559C71.5876 60.88 71.0542 62.2167 70.7173 63.6308C70.5489 64.3133 70.4296 65.0168 70.3664 65.7414C70.3243 66.1917 70.3033 66.649 70.3033 67.1133C70.3033 67.3595 70.3033 67.6058 70.3243 67.852C70.3243 67.9294 70.3314 68.0138 70.3384 68.0912C70.8366 75.8582 77.2862 82 85.1533 82C93.0205 82 99.47 75.8582 99.9683 68.0912C99.9893 67.7676 100.003 67.444 100.003 67.1133C100.003 64.4047 99.2805 61.8579 98.0103 59.67ZM93.4556 63.87C93.3714 64.0248 93.2661 64.1655 93.1328 64.2992L89.3501 68.0912L84.5498 72.9104C84.1357 73.3184 83.6023 73.5295 83.062 73.5295C82.5216 73.5295 81.9812 73.3184 81.5742 72.9104L77.1739 68.4993C77.0476 68.3726 76.9423 68.239 76.8651 68.0912C76.8089 68.0138 76.7668 67.9364 76.7388 67.852C76.4721 67.254 76.5002 66.5575 76.83 65.9806C76.8721 65.8962 76.9212 65.8188 76.9844 65.7414C77.0405 65.664 77.1037 65.5866 77.1739 65.5163C77.995 64.6932 79.3284 64.6932 80.1495 65.5163L80.6127 65.9806L82.4865 67.852L82.7251 68.0912L83.062 68.4289L90.1571 61.3162C90.9782 60.4931 92.3117 60.4931 93.1328 61.3162C93.8205 62.0057 93.9328 63.061 93.4556 63.87Z" fill="white"/>
</svg>
