<?xml version="1.0" encoding="utf-8"?>
<!-- Generator: Adobe Illustrator 27.0.0, SVG Export Plug-In . SVG Version: 6.00 Build 0)  -->
<svg version="1.1" id="_Слой_2" xmlns="http://www.w3.org/2000/svg" xmlns:xlink="http://www.w3.org/1999/xlink" x="0px"
	 y="0px" viewBox="0 0 371.8 117.9" style="enable-background:new 0 0 371.8 117.9;" xml:space="preserve">
<style type="text/css">
	.st0{fill:url(#SVGID_1_);}
	.st1{enable-background:new    ;}
	.st2{fill:#393D55;}
</style>
<g id="_Слой_1-2">
	<g>
		
			<linearGradient id="SVGID_1_" gradientUnits="userSpaceOnUse" x1="6.106031e-03" y1="69.9018" x2="69.22" y2="69.9018" gradientTransform="matrix(1 0 0 -1 0 119)">
			<stop  offset="0" style="stop-color:#FFA2BF"/>
			<stop  offset="1" style="stop-color:#6C5DD3"/>
		</linearGradient>
		<path class="st0" d="M4.4,98.2c-0.4-2-0.8-4-1.1-6c-1-7.8-0.1-15.5,2.2-23c0.3-1.1,0.2-1.8-0.6-2.5C2,64,0.7,60.6,0.2,56.7
			c-0.6-4.7,0.2-9.2,1.5-13.7c0-0.1,0.1-0.2,0.2-0.4c1.1,0.9,2.2,1.7,3.5,2.7c-0.4-1.5-0.7-2.8-0.9-4.1c-0.4-2.5-0.1-5,1.2-7.2
			c1.2-2.1,2.6-4.2,3.9-6.3c0.1-0.1,0.2-0.2,0.4-0.4c0.1,2.5,0.5,4.9,1.9,6.9c0.4-6.5,2.3-12.3,7.2-17c-1.2,3.8-0.9,7.3,1,10.7
			c1-8.9,5.1-15.7,13-20.2c-2,3.2-2.8,6.7-1.8,10.4c2-4.7,4.3-9.2,8.1-12.7c-1,2.7-1.4,5.4-0.6,8.5c0.2-0.4,0.4-0.6,0.4-0.9
			c1.2-3.3,3-6.4,5.1-9.2c0.6-0.9,1.4-1.4,2.5-1.7c5-1.4,10-2.3,15.1-2.2c2.5,0,4.9,0.4,7.4,0.6c0,0.1,0,0.2,0.1,0.4
			c-0.2,0.2-0.5,0.5-0.8,0.6c-8.3,5.2-12.8,13-15.5,22.1c-1.9,6.4-3.6,13-5.9,19.3c-3,8.4-7.7,15.7-14.6,21.5
			c-3.9,3.3-8.4,5.6-13.6,6.2c-0.8,0.1-1.6,0.1-2.4,0.1c-0.2,0-0.4-0.1-0.7-0.1c3.8-12.3,9-23.9,14.9-35.2
			c-6.7,9.3-12.5,19.1-17,29.7C9.1,75.8,6.9,87,4.8,98.2C4.6,98.2,4.5,98.2,4.4,98.2L4.4,98.2z"/>
		<g class="st1">
			<path class="st2" d="M97.5,47H81.3v43.5h-5.8V47H59.4v-5.4h38.1V47z"/>
		</g>
		<g class="st1">
			<path class="st2" d="M124.5,84.6c-1.9,2.5-4,4.2-6.3,5.2c-2.3,1-5,1.5-8,1.5c-2.5,0-4.8-0.4-6.8-1.3c-2-0.9-3.7-2.1-5.1-3.6
				C96.8,84.8,95.7,83,95,81c-0.8-2.1-1.1-4.3-1.1-6.6c0-2.5,0.4-4.8,1.2-6.9c0.8-2.1,2-3.9,3.5-5.4c1.5-1.5,3.2-2.7,5.2-3.5
				c2-0.8,4.2-1.2,6.6-1.2c2.3,0,4.3,0.4,6.2,1.1c1.9,0.8,3.5,1.9,4.9,3.3c1.4,1.4,2.4,3.2,3.1,5.3c0.7,2.1,1.1,4.5,1.1,7.1V76H99.6
				c0.1,1.4,0.4,2.7,1,4c0.6,1.3,1.3,2.4,2.2,3.3c0.9,0.9,2,1.7,3.2,2.2c1.2,0.6,2.6,0.8,4.1,0.8c2.3,0,4.3-0.4,5.9-1.2
				c1.6-0.8,3.1-2,4.3-3.7L124.5,84.6z M119.9,71.4c-0.1-2.8-1-5-2.7-6.6c-1.7-1.7-4-2.5-7-2.5c-3,0-5.4,0.8-7.2,2.5
				c-1.8,1.7-2.9,3.9-3.3,6.6H119.9z"/>
			<path class="st2" d="M134.5,38.3h5.4v52.2h-5.4V38.3z"/>
			<path class="st2" d="M179.5,84.6c-1.9,2.5-4,4.2-6.3,5.2c-2.3,1-5,1.5-8,1.5c-2.5,0-4.8-0.4-6.8-1.3c-2-0.9-3.7-2.1-5.1-3.6
				c-1.4-1.5-2.5-3.3-3.2-5.4c-0.8-2.1-1.1-4.3-1.1-6.6c0-2.5,0.4-4.8,1.2-6.9c0.8-2.1,2-3.9,3.5-5.4c1.5-1.5,3.2-2.7,5.2-3.5
				c2-0.8,4.2-1.2,6.6-1.2c2.3,0,4.3,0.4,6.2,1.1c1.9,0.8,3.5,1.9,4.9,3.3c1.4,1.4,2.4,3.2,3.1,5.3c0.7,2.1,1.1,4.5,1.1,7.1V76
				h-26.1c0.1,1.4,0.4,2.7,1,4c0.6,1.3,1.3,2.4,2.2,3.3c0.9,0.9,2,1.7,3.2,2.2c1.2,0.6,2.6,0.8,4.1,0.8c2.3,0,4.3-0.4,5.9-1.2
				c1.6-0.8,3.1-2,4.3-3.7L179.5,84.6z M174.8,71.4c-0.1-2.8-1-5-2.7-6.6c-1.7-1.7-4-2.5-7-2.5c-3,0-5.4,0.8-7.2,2.5
				c-1.8,1.7-2.9,3.9-3.3,6.6H174.8z"/>
			<path class="st2" d="M213.1,50.3c-1-1.6-2.3-2.7-3.9-3.4c-1.6-0.7-3.3-1.1-5-1.1c-1.3,0-2.6,0.2-3.8,0.5
				c-1.2,0.3-2.4,0.8-3.3,1.4c-1,0.6-1.8,1.5-2.4,2.6c-0.6,1.1-0.9,2.3-0.9,3.7c0,1.1,0.2,2.1,0.5,2.9c0.3,0.9,0.9,1.6,1.7,2.3
				c0.8,0.7,1.8,1.3,3.2,1.9c1.3,0.6,3,1.2,4.9,1.8c1.9,0.6,3.7,1.2,5.5,1.9c1.8,0.7,3.3,1.6,4.7,2.6c1.4,1.1,2.4,2.4,3.2,4
				c0.8,1.6,1.2,3.6,1.2,6c0,2.4-0.5,4.6-1.4,6.3c-1,1.8-2.2,3.3-3.8,4.5c-1.6,1.2-3.4,2-5.5,2.6c-2.1,0.6-4.2,0.9-6.4,0.9
				c-1.4,0-2.9-0.1-4.3-0.4c-1.4-0.3-2.8-0.6-4.1-1.2c-1.3-0.5-2.5-1.2-3.7-2.1c-1.2-0.9-2.1-1.9-3-3.1l5-4.1
				c1.1,1.8,2.5,3.2,4.4,4.1c1.9,0.9,3.9,1.4,6,1.4c1.2,0,2.5-0.2,3.8-0.6c1.3-0.4,2.4-0.9,3.4-1.6c1-0.7,1.8-1.6,2.5-2.7
				c0.6-1.1,1-2.3,1-3.7c0-1.5-0.3-2.7-0.8-3.7c-0.5-0.9-1.3-1.8-2.3-2.4c-1.1-0.7-2.4-1.3-4-1.9c-1.6-0.6-3.5-1.2-5.7-1.9
				c-1.7-0.6-3.4-1.2-4.8-1.9c-1.5-0.7-2.7-1.6-3.8-2.6c-1.1-1-1.9-2.3-2.6-3.7c-0.6-1.4-0.9-3.2-0.9-5.2c0-2.3,0.5-4.4,1.4-6.1
				c0.9-1.7,2.2-3.2,3.7-4.4c1.6-1.2,3.3-2.1,5.3-2.7c2-0.6,4-0.9,6.2-0.9c2.8,0,5.3,0.4,7.6,1.3c2.3,0.9,4.3,2.3,6.1,4.5
				L213.1,50.3z"/>
			<path class="st2" d="M227.1,58.2h5.4v4.7h0.1c1.5-1.7,3.2-3.1,5.1-4.1c2-1,4.1-1.4,6.5-1.4c2.5,0,4.8,0.4,6.9,1.3
				c2.1,0.9,3.9,2,5.3,3.6c1.5,1.5,2.6,3.3,3.5,5.4s1.2,4.3,1.2,6.8c0,2.4-0.4,4.7-1.2,6.8s-2,3.9-3.4,5.4c-1.4,1.5-3.2,2.7-5.1,3.6
				c-2,0.9-4.1,1.3-6.3,1.3c-2.9,0-5.4-0.6-7.6-1.9c-2.2-1.3-3.8-2.8-4.8-4.7h-0.1v21.5h-5.4V58.2z M232.4,74.3
				c0,1.7,0.3,3.3,0.8,4.7c0.5,1.4,1.3,2.7,2.3,3.8c1,1.1,2.2,1.9,3.6,2.6c1.4,0.6,3,0.9,4.7,0.9c1.7,0,3.3-0.3,4.7-0.9
				c1.4-0.6,2.6-1.5,3.6-2.6c1-1.1,1.8-2.3,2.3-3.8c0.5-1.4,0.8-3,0.8-4.7c0-1.7-0.3-3.3-0.8-4.7c-0.5-1.4-1.3-2.7-2.3-3.8
				c-1-1.1-2.2-1.9-3.6-2.6c-1.4-0.6-3-0.9-4.7-0.9c-1.7,0-3.3,0.3-4.7,0.9c-1.4,0.6-2.6,1.5-3.6,2.6c-1,1.1-1.8,2.3-2.3,3.8
				C232.7,71.1,232.4,72.6,232.4,74.3z"/>
			<path class="st2" d="M269.1,62.3c1.7-1.7,3.6-3,5.9-3.8c2.3-0.8,4.6-1.2,6.9-1.2c4.8,0,8.2,1.1,10.4,3.4
				c2.1,2.3,3.2,5.7,3.2,10.3v13.9c0,0.9,0,1.9,0.1,2.9c0.1,1,0.2,1.9,0.3,2.7h-5.2c-0.2-0.7-0.3-1.6-0.3-2.4c0-0.9,0-1.7,0-2.4
				h-0.1c-1.1,1.7-2.5,3-4.2,4.1c-1.8,1.1-3.9,1.6-6.4,1.6c-1.7,0-3.2-0.2-4.7-0.6c-1.4-0.4-2.7-1-3.8-1.8s-1.9-1.8-2.6-3
				c-0.6-1.2-1-2.6-1-4.1c0-2.7,0.7-4.8,2.1-6.3s3.1-2.6,5.1-3.4c2-0.7,4.3-1.2,6.6-1.4s4.5-0.3,6.5-0.3h2.1v-1
				c0-2.3-0.7-4.1-2.1-5.3c-1.4-1.2-3.4-1.8-5.9-1.8c-1.7,0-3.5,0.3-5.1,0.9c-1.7,0.6-3.2,1.5-4.5,2.7L269.1,62.3z M284.7,75
				c-3.5,0-6.2,0.5-8.2,1.4c-2,1-3,2.6-3,4.8c0,2,0.7,3.5,2,4.3c1.4,0.9,3,1.3,5.1,1.3c1.6,0,2.9-0.3,4.1-0.8s2.2-1.2,2.9-2.1
				c0.8-0.9,1.4-1.9,1.8-3.1c0.4-1.2,0.6-2.4,0.7-3.8V75H284.7z"/>
			<path class="st2" d="M328.3,66.3c-1.2-1.4-2.4-2.4-3.7-3c-1.3-0.6-2.8-0.9-4.4-0.9c-1.8,0-3.4,0.3-4.8,0.9
				c-1.4,0.6-2.5,1.5-3.4,2.6c-0.9,1.1-1.6,2.4-2,3.8c-0.5,1.4-0.7,3-0.7,4.7s0.3,3.2,0.8,4.7c0.5,1.4,1.3,2.7,2.2,3.8
				c0.9,1.1,2.1,2,3.4,2.6c1.3,0.6,2.8,0.9,4.5,0.9c3.5,0,6.3-1.3,8.2-4l4,3.8c-1.6,1.8-3.4,3.1-5.5,3.9s-4.3,1.2-6.7,1.2
				c-2.5,0-4.8-0.4-6.8-1.2s-3.8-2-5.3-3.5c-1.4-1.5-2.6-3.3-3.4-5.4c-0.8-2.1-1.2-4.3-1.2-6.8c0-2.4,0.4-4.7,1.2-6.8
				c0.8-2.1,1.9-3.9,3.4-5.4c1.5-1.5,3.2-2.7,5.3-3.6c2-0.9,4.3-1.3,6.8-1.3c2.4,0,4.7,0.4,6.8,1.2c2.1,0.8,4,2.1,5.6,3.9
				L328.3,66.3z"/>
			<path class="st2" d="M367.4,84.6c-1.9,2.5-4,4.2-6.3,5.2c-2.3,1-5,1.5-8,1.5c-2.5,0-4.8-0.4-6.8-1.3c-2-0.9-3.7-2.1-5.1-3.6
				c-1.4-1.5-2.5-3.3-3.2-5.4c-0.8-2.1-1.1-4.3-1.1-6.6c0-2.5,0.4-4.8,1.2-6.9s2-3.9,3.5-5.4c1.5-1.5,3.2-2.7,5.2-3.5
				c2-0.8,4.2-1.2,6.6-1.2c2.3,0,4.3,0.4,6.2,1.1c1.9,0.8,3.5,1.9,4.9,3.3c1.4,1.4,2.4,3.2,3.1,5.3c0.7,2.1,1.1,4.5,1.1,7.1V76
				h-26.1c0.1,1.4,0.4,2.7,1,4c0.6,1.3,1.3,2.4,2.2,3.3c0.9,0.9,2,1.7,3.2,2.2c1.2,0.6,2.6,0.8,4.1,0.8c2.3,0,4.3-0.4,5.9-1.2
				c1.6-0.8,3.1-2,4.3-3.7L367.4,84.6z M362.8,71.4c-0.1-2.8-1-5-2.7-6.6s-4-2.5-7-2.5c-3,0-5.4,0.8-7.2,2.5
				c-1.8,1.7-2.9,3.9-3.3,6.6H362.8z"/>
		</g>
	</g>
</g>
</svg>
