<?xml version="1.0" encoding="UTF-8"?>
<svg id="_Слой_2" data-name="Слой 2" xmlns="http://www.w3.org/2000/svg" xmlns:xlink="http://www.w3.org/1999/xlink" viewBox="0 0 371.82 117.94">
  <defs>
    <style>
      .cls-1 {
        letter-spacing: 0em;
      }

      .cls-2 {
        fill: #393d55;
        font-family: Avenir-Roman, Avenir;
        font-size: 69px;
      }

      .cls-3 {
        letter-spacing: -.11em;
      }

      .cls-4 {
        fill: url(#_Безымянный_градиент_6);
      }
    </style>
    <linearGradient id="_Безымянный_градиент_6" data-name="Безымянный градиент 6" x1="0" y1="49.1" x2="69.22" y2="49.1" gradientUnits="userSpaceOnUse">
      <stop offset="0" stop-color="#ffa2bf"/>
      <stop offset="1" stop-color="#6c5dd3"/>
    </linearGradient>
  </defs>
  <g id="_Слой_1-2" data-name="Слой 1">
    <g>
      <path class="cls-4" d="M4.43,98.2c-.37-1.99-.84-3.96-1.1-5.97-1.03-7.83-.1-15.49,2.19-23,.32-1.06,.22-1.75-.62-2.52-2.9-2.67-4.2-6.15-4.69-9.97-.6-4.68,.19-9.21,1.51-13.69,.03-.11,.09-.22,.18-.43,1.13,.88,2.22,1.71,3.47,2.69-.36-1.53-.73-2.79-.94-4.07-.42-2.53-.09-4.98,1.22-7.21,1.25-2.12,2.58-4.18,3.89-6.26,.06-.1,.17-.17,.38-.36,.15,2.51,.46,4.85,1.9,6.95,.43-6.47,2.26-12.33,7.22-17.04-1.17,3.82-.91,7.33,.98,10.72,1-8.88,5.09-15.74,12.96-20.2-2.03,3.24-2.82,6.68-1.83,10.44,1.98-4.71,4.3-9.18,8.12-12.73-1.03,2.7-1.39,5.44-.61,8.52,.23-.44,.36-.64,.44-.87,1.25-3.32,3-6.37,5.07-9.24,.64-.88,1.44-1.43,2.49-1.72C51.61,.88,56.62-.07,61.76,0c2.47,.04,4.93,.41,7.39,.63,.02,.12,.04,.24,.07,.36-.25,.21-.48,.46-.76,.63-8.3,5.18-12.78,13.03-15.49,22.13-1.92,6.44-3.62,12.96-5.9,19.27-3.01,8.36-7.71,15.73-14.59,21.53-3.94,3.32-8.39,5.58-13.58,6.17-.8,.09-1.61,.09-2.42,.12-.19,0-.37-.06-.71-.11,3.75-12.29,8.98-23.88,14.86-35.21-6.66,9.33-12.48,19.13-17.02,29.68-4.55,10.56-6.66,21.77-8.85,32.96-.11,0-.21,.02-.32,.02Z"/>
      <text class="cls-2" transform="translate(58.63 90.48)"><tspan class="cls-3" x="0" y="0">T</tspan><tspan class="cls-1" x="31.95" y="0">eleSpace</tspan></text>
    </g>
  </g>
</svg>