<?xml version="1.0" encoding="utf-8"?>
<!-- Generator: Adobe Illustrator 27.0.0, SVG Export Plug-In . SVG Version: 6.00 Build 0)  -->
<svg version="1.1" id="_Слой_2" xmlns="http://www.w3.org/2000/svg" xmlns:xlink="http://www.w3.org/1999/xlink" x="0px"
	 y="0px" viewBox="0 0 371.8 117.9" style="enable-background:new 0 0 371.8 117.9;" xml:space="preserve">
<style type="text/css">
	.st0{fill:#393D55;}
	.st1{font-family:'Avenir-Roman';}
	.st2{font-size:69px;}
	.st3{letter-spacing:-7;}
</style>
<g id="_Слой_1-2">
	<g>
		<path class="st0" d="M4.4,98.2c-0.4-2-0.8-4-1.1-6c-1-7.8-0.1-15.5,2.2-23c0.3-1.1,0.2-1.8-0.6-2.5C2,64,0.7,60.6,0.2,56.7
			c-0.6-4.7,0.2-9.2,1.5-13.7c0-0.1,0.1-0.2,0.2-0.4c1.1,0.9,2.2,1.7,3.5,2.7c-0.4-1.5-0.7-2.8-0.9-4.1c-0.4-2.5-0.1-5,1.2-7.2
			c1.2-2.1,2.6-4.2,3.9-6.3c0.1-0.1,0.2-0.2,0.4-0.4c0.1,2.5,0.5,4.9,1.9,6.9c0.4-6.5,2.3-12.3,7.2-17c-1.2,3.8-0.9,7.3,1,10.7
			c1-8.9,5.1-15.7,13-20.2c-2,3.2-2.8,6.7-1.8,10.4c2-4.7,4.3-9.2,8.1-12.7c-1,2.7-1.4,5.4-0.6,8.5c0.2-0.4,0.4-0.6,0.4-0.9
			c1.2-3.3,3-6.4,5.1-9.2c0.6-0.9,1.4-1.4,2.5-1.7c5-1.4,10-2.3,15.1-2.2c2.5,0,4.9,0.4,7.4,0.6c0,0.1,0,0.2,0.1,0.4
			c-0.2,0.2-0.5,0.5-0.8,0.6c-8.3,5.2-12.8,13-15.5,22.1c-1.9,6.4-3.6,13-5.9,19.3c-3,8.4-7.7,15.7-14.6,21.5
			c-3.9,3.3-8.4,5.6-13.6,6.2c-0.8,0.1-1.6,0.1-2.4,0.1c-0.2,0-0.4-0.1-0.7-0.1c3.8-12.3,9-23.9,14.9-35.2
			c-6.7,9.3-12.5,19.1-17,29.7C9.1,75.8,6.9,87,4.8,98.2C4.6,98.2,4.5,98.2,4.4,98.2L4.4,98.2z"/>
		<text transform="matrix(1 0 0 1 58.63 90.48)" class="st0 st1 st2 st3">T</text>
		<text transform="matrix(1 0 0 1 90.58 90.48)" class="st0 st1 st2">eleSpace</text>
	</g>
</g>
</svg>
