<svg width="135" height="110" viewBox="0 0 135 110" fill="none" xmlns="http://www.w3.org/2000/svg">
<rect x="7" y="20" width="121" height="90" rx="10" fill="#F5DC4D" fill-opacity="0.3"/>
<rect width="135" height="100" rx="10" fill="#F5DC4D"/>
<path d="M51.8892 52.922C51.8892 63.7123 62.1533 72.4612 74.8201 72.4612C77.3624 72.4612 79.8032 72.1125 82.0855 71.4595C83.8796 72.4993 91.3859 76.5314 99 75.4409C99 75.4409 93.3196 71.1426 92.0706 66.9837C91.9692 66.6477 91.817 66.4004 91.6268 66.2165C95.4244 62.7297 97.7511 58.0573 97.7511 52.922C97.7511 42.1254 87.487 33.3829 74.8201 33.3829C62.1533 33.3829 51.8892 42.1254 51.8892 52.922Z" fill="white" stroke="white" stroke-width="5" stroke-linecap="round" stroke-linejoin="round"/>
<path d="M67.8464 31.5063H50.9572C49.9175 31.5063 49.0806 32.3432 49.0806 33.3829C49.0806 34.4226 49.9175 35.2595 50.9572 35.2595H67.8464C68.8861 35.2595 69.7229 34.4226 69.7229 33.3829C69.7229 32.3432 68.8861 31.5063 67.8464 31.5063ZM67.8464 38.0744H50.9572C49.9175 38.0744 49.0806 38.9175 49.0806 39.9509C49.0806 40.9843 49.9175 41.8275 50.9572 41.8275H67.8464C68.8861 41.8275 69.7229 40.9906 69.7229 39.9509C69.7229 38.9112 68.8861 38.0744 67.8464 38.0744ZM67.8464 44.6424H63.1549C62.1215 44.6424 61.2783 45.4855 61.2783 46.5189C61.2783 47.5523 62.1215 48.3955 63.1549 48.3955H67.8464C68.8861 48.3955 69.7229 47.5586 69.7229 46.5189C69.7229 45.4792 68.8861 44.6424 67.8464 44.6424ZM67.8464 51.2104H63.1549C62.1215 51.2104 61.2783 52.0535 61.2783 53.0869C61.2783 54.1203 62.1215 54.9698 63.1549 54.9698H67.8464C68.8861 54.9698 69.7229 54.1267 69.7229 53.0869C69.7229 52.0472 68.8861 51.2104 67.8464 51.2104ZM56.5869 44.6424H50.9572C49.9175 44.6424 49.0806 45.4855 49.0806 46.5189V53.0869C49.0806 54.1267 49.9175 54.9698 50.9572 54.9698H56.5869C57.6203 54.9698 58.4635 54.1267 58.4635 53.0869V46.5189C58.4635 45.4855 57.6203 44.6424 56.5869 44.6424Z" fill="white"/>
<path d="M56.5869 44.6423H50.9572C49.9175 44.6423 49.0806 45.4855 49.0806 46.5189V53.0869C49.0806 54.1266 49.9175 54.9698 50.9572 54.9698H56.5869C57.6203 54.9698 58.4635 54.1266 58.4635 53.0869V46.5189C58.4635 45.4855 57.6203 44.6423 56.5869 44.6423ZM67.8464 51.2103H63.1549C62.1215 51.2103 61.2784 52.0535 61.2784 53.0869C61.2784 54.1203 62.1215 54.9698 63.1549 54.9698H67.8464C68.8861 54.9698 69.7229 54.1266 69.7229 53.0869C69.7229 52.0471 68.8861 51.2103 67.8464 51.2103ZM67.8464 44.6423H63.1549C62.1215 44.6423 61.2784 45.4855 61.2784 46.5189C61.2784 47.5522 62.1215 48.3954 63.1549 48.3954H67.8464C68.8861 48.3954 69.7229 47.5586 69.7229 46.5189C69.7229 45.4791 68.8861 44.6423 67.8464 44.6423ZM67.8464 38.0743H50.9572C49.9175 38.0743 49.0806 38.9175 49.0806 39.9509C49.0806 40.9842 49.9175 41.8274 50.9572 41.8274H67.8464C68.8861 41.8274 69.7229 40.9906 69.7229 39.9509C69.7229 38.9111 68.8861 38.0743 67.8464 38.0743ZM67.8464 31.5063H50.9572C49.9175 31.5063 49.0806 32.3431 49.0806 33.3829C49.0806 34.4226 49.9175 35.2594 50.9572 35.2594H67.8464C68.8861 35.2594 69.7229 34.4226 69.7229 33.3829C69.7229 32.3431 68.8861 31.5063 67.8464 31.5063ZM50.9572 35.2594H67.8464C68.8861 35.2594 69.7229 34.4226 69.7229 33.3829C69.7229 32.3431 68.8861 31.5063 67.8464 31.5063H50.9572C49.9175 31.5063 49.0806 32.3431 49.0806 33.3829C49.0806 34.4226 49.9175 35.2594 50.9572 35.2594ZM67.8464 38.0743H50.9572C49.9175 38.0743 49.0806 38.9175 49.0806 39.9509C49.0806 40.9842 49.9175 41.8274 50.9572 41.8274H67.8464C68.8861 41.8274 69.7229 40.9906 69.7229 39.9509C69.7229 38.9111 68.8861 38.0743 67.8464 38.0743ZM67.8464 44.6423H63.1549C62.1215 44.6423 61.2784 45.4855 61.2784 46.5189C61.2784 47.5522 62.1215 48.3954 63.1549 48.3954H67.8464C68.8861 48.3954 69.7229 47.5586 69.7229 46.5189C69.7229 45.4791 68.8861 44.6423 67.8464 44.6423ZM67.8464 51.2103H63.1549C62.1215 51.2103 61.2784 52.0535 61.2784 53.0869C61.2784 54.1203 62.1215 54.9698 63.1549 54.9698H67.8464C68.8861 54.9698 69.7229 54.1266 69.7229 53.0869C69.7229 52.0471 68.8861 51.2103 67.8464 51.2103ZM56.5869 44.6423H50.9572C49.9175 44.6423 49.0806 45.4855 49.0806 46.5189V53.0869C49.0806 54.1266 49.9175 54.9698 50.9572 54.9698H56.5869C57.6203 54.9698 58.4635 54.1266 58.4635 53.0869V46.5189C58.4635 45.4855 57.6203 44.6423 56.5869 44.6423ZM71.5995 24H47.2041C44.6174 24 42.5126 26.1048 42.5126 28.6914V33.3829H39.6914C37.1048 33.3829 35 35.4877 35 38.0743V55.9081C35 59.0082 37.5296 61.5378 40.6297 61.5378H70.6612C73.7677 61.5378 76.2909 59.0082 76.2909 55.9081V28.6914C76.2909 26.1048 74.1861 24 71.5995 24ZM42.5126 55.9081C42.5126 56.9414 41.6694 57.7846 40.6297 57.7846C39.59 57.7846 38.7531 56.9414 38.7531 55.9081V38.0743C38.7531 37.5608 39.1779 37.136 39.6914 37.136H42.5126V55.9081ZM72.5378 55.9081C72.5378 56.9414 71.6946 57.7846 70.6612 57.7846H45.9424C46.1517 57.195 46.2658 56.5611 46.2658 55.9081V28.6914C46.2658 28.1716 46.6842 27.7531 47.2041 27.7531H71.5995C72.1194 27.7531 72.5378 28.1716 72.5378 28.6914V55.9081ZM67.8464 31.5063H50.9572C49.9175 31.5063 49.0806 32.3431 49.0806 33.3829C49.0806 34.4226 49.9175 35.2594 50.9572 35.2594H67.8464C68.8861 35.2594 69.7229 34.4226 69.7229 33.3829C69.7229 32.3431 68.8861 31.5063 67.8464 31.5063ZM67.8464 38.0743H50.9572C49.9175 38.0743 49.0806 38.9175 49.0806 39.9509C49.0806 40.9842 49.9175 41.8274 50.9572 41.8274H67.8464C68.8861 41.8274 69.7229 40.9906 69.7229 39.9509C69.7229 38.9111 68.8861 38.0743 67.8464 38.0743ZM67.8464 44.6423H63.1549C62.1215 44.6423 61.2784 45.4855 61.2784 46.5189C61.2784 47.5522 62.1215 48.3954 63.1549 48.3954H67.8464C68.8861 48.3954 69.7229 47.5586 69.7229 46.5189C69.7229 45.4791 68.8861 44.6423 67.8464 44.6423ZM67.8464 51.2103H63.1549C62.1215 51.2103 61.2784 52.0535 61.2784 53.0869C61.2784 54.1203 62.1215 54.9698 63.1549 54.9698H67.8464C68.8861 54.9698 69.7229 54.1266 69.7229 53.0869C69.7229 52.0471 68.8861 51.2103 67.8464 51.2103ZM56.5869 44.6423H50.9572C49.9175 44.6423 49.0806 45.4855 49.0806 46.5189V53.0869C49.0806 54.1266 49.9175 54.9698 50.9572 54.9698H56.5869C57.6203 54.9698 58.4635 54.1266 58.4635 53.0869V46.5189C58.4635 45.4855 57.6203 44.6423 56.5869 44.6423ZM56.5869 44.6423H50.9572C49.9175 44.6423 49.0806 45.4855 49.0806 46.5189V53.0869C49.0806 54.1266 49.9175 54.9698 50.9572 54.9698H56.5869C57.6203 54.9698 58.4635 54.1266 58.4635 53.0869V46.5189C58.4635 45.4855 57.6203 44.6423 56.5869 44.6423ZM67.8464 51.2103H63.1549C62.1215 51.2103 61.2784 52.0535 61.2784 53.0869C61.2784 54.1203 62.1215 54.9698 63.1549 54.9698H67.8464C68.8861 54.9698 69.7229 54.1266 69.7229 53.0869C69.7229 52.0471 68.8861 51.2103 67.8464 51.2103ZM67.8464 44.6423H63.1549C62.1215 44.6423 61.2784 45.4855 61.2784 46.5189C61.2784 47.5522 62.1215 48.3954 63.1549 48.3954H67.8464C68.8861 48.3954 69.7229 47.5586 69.7229 46.5189C69.7229 45.4791 68.8861 44.6423 67.8464 44.6423ZM67.8464 38.0743H50.9572C49.9175 38.0743 49.0806 38.9175 49.0806 39.9509C49.0806 40.9842 49.9175 41.8274 50.9572 41.8274H67.8464C68.8861 41.8274 69.7229 40.9906 69.7229 39.9509C69.7229 38.9111 68.8861 38.0743 67.8464 38.0743ZM67.8464 31.5063H50.9572C49.9175 31.5063 49.0806 32.3431 49.0806 33.3829C49.0806 34.4226 49.9175 35.2594 50.9572 35.2594H67.8464C68.8861 35.2594 69.7229 34.4226 69.7229 33.3829C69.7229 32.3431 68.8861 31.5063 67.8464 31.5063ZM67.8464 31.5063H50.9572C49.9175 31.5063 49.0806 32.3431 49.0806 33.3829C49.0806 34.4226 49.9175 35.2594 50.9572 35.2594H67.8464C68.8861 35.2594 69.7229 34.4226 69.7229 33.3829C69.7229 32.3431 68.8861 31.5063 67.8464 31.5063ZM67.8464 38.0743H50.9572C49.9175 38.0743 49.0806 38.9175 49.0806 39.9509C49.0806 40.9842 49.9175 41.8274 50.9572 41.8274H67.8464C68.8861 41.8274 69.7229 40.9906 69.7229 39.9509C69.7229 38.9111 68.8861 38.0743 67.8464 38.0743ZM56.5869 44.6423H50.9572C49.9175 44.6423 49.0806 45.4855 49.0806 46.5189V53.0869C49.0806 54.1266 49.9175 54.9698 50.9572 54.9698H56.5869C57.6203 54.9698 58.4635 54.1266 58.4635 53.0869V46.5189C58.4635 45.4855 57.6203 44.6423 56.5869 44.6423ZM67.8464 44.6423H63.1549C62.1215 44.6423 61.2784 45.4855 61.2784 46.5189C61.2784 47.5522 62.1215 48.3954 63.1549 48.3954H67.8464C68.8861 48.3954 69.7229 47.5586 69.7229 46.5189C69.7229 45.4791 68.8861 44.6423 67.8464 44.6423ZM67.8464 51.2103H63.1549C62.1215 51.2103 61.2784 52.0535 61.2784 53.0869C61.2784 54.1203 62.1215 54.9698 63.1549 54.9698H67.8464C68.8861 54.9698 69.7229 54.1266 69.7229 53.0869C69.7229 52.0471 68.8861 51.2103 67.8464 51.2103Z" fill="white"/>
<path d="M71.5995 27.7532H47.2041C46.6842 27.7532 46.2658 28.1716 46.2658 28.6915V55.9081C46.2658 56.5611 46.1517 57.1951 45.9424 57.7847H70.6612C71.6946 57.7847 72.5378 56.9415 72.5378 55.9081V28.6915C72.5378 28.1716 72.1194 27.7532 71.5995 27.7532ZM58.4635 53.0869C58.4635 54.1266 57.6203 54.9698 56.5869 54.9698H50.9572C49.9175 54.9698 49.0806 54.1266 49.0806 53.0869V46.5189C49.0806 45.4855 49.9175 44.6423 50.9572 44.6423H56.5869C57.6203 44.6423 58.4635 45.4855 58.4635 46.5189V53.0869ZM67.8464 54.9698H63.1549C62.1215 54.9698 61.2784 54.1266 61.2784 53.0869C61.2784 52.0472 62.1215 51.2103 63.1549 51.2103H67.8464C68.8861 51.2103 69.7229 52.0535 69.7229 53.0869C69.7229 54.1203 68.8861 54.9698 67.8464 54.9698ZM67.8464 48.3955H63.1549C62.1215 48.3955 61.2784 47.5586 61.2784 46.5189C61.2784 45.4792 62.1215 44.6423 63.1549 44.6423H67.8464C68.8861 44.6423 69.7229 45.4855 69.7229 46.5189C69.7229 47.5523 68.8861 48.3955 67.8464 48.3955ZM67.8464 41.8275H50.9572C49.9175 41.8275 49.0806 40.9906 49.0806 39.9509C49.0806 38.9112 49.9175 38.0743 50.9572 38.0743H67.8464C68.8861 38.0743 69.7229 38.9175 69.7229 39.9509C69.7229 40.9843 68.8861 41.8275 67.8464 41.8275ZM67.8464 35.2595H50.9572C49.9175 35.2595 49.0806 34.4226 49.0806 33.3829C49.0806 32.3432 49.9175 31.5063 50.9572 31.5063H67.8464C68.8861 31.5063 69.7229 32.3432 69.7229 33.3829C69.7229 34.4226 68.8861 35.2595 67.8464 35.2595Z" fill="#F5DC4D"/>
<path d="M42.5127 37.136V55.9081C42.5127 56.9415 41.6695 57.7847 40.6297 57.7847C39.59 57.7847 38.7532 56.9415 38.7532 55.9081V38.0743C38.7532 37.5608 39.1779 37.136 39.6915 37.136H42.5127Z" fill="#F5DC4D"/>
</svg>
