<?xml version="1.0" encoding="UTF-8"?>
<svg id="_Слой_2" data-name="Слой 2" xmlns="http://www.w3.org/2000/svg" viewBox="0 0 293.51 277.15">
  <g id="_Слой_1-2" data-name="Слой 1">
    <path d="M144.69,1.05c-.54,.63-11.62,16.94-24.61,36.28s-26.95,40.09-31.05,46.14c-4.05,6.05-11.91,17.68-17.38,25.88-5.52,8.2-13.09,19.38-16.8,24.9s-11.82,17.48-17.97,26.61-13.82,20.46-16.99,25.15C6.51,205.69,.02,215.8,.02,216.92c0,2.64-2.44,2.54,52.93,2.54,51.12,0,51.32,0,53.52-1.03,1.22-.59,6.45-3.47,11.57-6.49,5.08-2.98,9.52-5.42,9.86-5.42,.93,0,.59,.68-1.03,1.95-7.57,5.91-13.67,10.99-15.14,12.65-1.76,1.9-2.83,4.54-2.83,6.88,0,1.76,2.1,5.96,5.08,10.21,1.42,2.05,6.93,10.21,12.26,18.12s10.45,15.38,11.38,16.55c2.93,3.66,6.2,4.93,9.86,3.96,2.73-.73,4.88-2.78,7.86-7.47,3.71-5.81,30.76-47.27,31.64-48.54l.78-1.07,52.05-.15c56.59-.15,53.95,0,53.56-2.78-.2-1.32-33.45-51.22-91.7-137.74-8.25-12.21-23.39-34.81-33.64-50.2C157.73,13.51,148.94,.71,148.45,.47c-1.46-.78-2.69-.59-3.76,.59Zm24.41,42.04c12.06,18.02,26.17,39.16,31.45,46.97,17.14,25.39,46.83,69.78,47.51,71.04,.63,1.17,.59,1.17-.39,.49-1.51-1.07-31.45-22.8-46.63-33.89-3.71-2.73-7.37-5.37-8.15-5.91-2.83-2-11.62-8.45-32.08-23.49-8.79-6.4-13.13-9.47-13.53-9.47-.15,0,.05,.83,.44,1.81,.68,1.86,6.05,22.51,12.26,47.51,4.2,16.85,4.39,17.53,5.76,22.71,.68,2.39,1.12,4.44,1.07,4.54-.1,.1-1.42-1.56-2.88-3.66-7.03-9.86-12.84-16.89-14.75-17.92-2.39-1.27-5.96-1.27-8.11,.05-1.46,.83-6.35,7.03-18.55,23.63-16.41,22.36-21.73,29.59-23.83,32.37-3.56,4.69-4.64,8.4-3.42,11.87,.15,.49-9.03,.63-42.19,.73-23.29,.1-42.33,.1-42.33,0,0-.15,23.73-35.55,30.91-46.09,2.25-3.32,7.76-11.52,12.3-18.21,4.49-6.74,11.08-16.5,14.65-21.73,23.24-34.37,54.83-81.35,72.51-107.76,3.08-4.64,5.71-8.45,5.86-8.45,.15,.05,10.11,14.79,22.12,32.86Zm-18.85,118.51c2.39,3.37,8.5,11.82,13.57,18.8,5.03,6.98,10.55,14.55,12.16,16.85s3.27,4.44,3.61,4.83c.98,1.03,1.56,2.83,1.56,4.83,0,1.42-.68,2.83-3.12,6.45-5.47,8.15-31.15,48.05-31.69,49.17-.29,.63-.78,1.12-1.07,1.12-.34,0-3.96-4.98-8.06-11.13-4.15-6.1-9.18-13.53-11.28-16.46-4.49-6.4-5.57-8.5-5.18-10.11,.2-.73,2.98-3.32,7.42-6.98,3.96-3.17,7.57-6.35,8.11-6.98,3.08-3.96,.63-10.11-4.88-12.06-4.35-1.51-6.79-.88-15.97,4.2-7.67,4.25-11.72,6.3-12.4,6.3-.29,0-.49-.49-.39-1.07,.1-.73,1.12-1.61,3.17-2.83,3.22-1.86,4.3-3.22,31.2-40.19,4.44-6.15,8.25-11.08,8.5-10.99s2.34,2.88,4.74,6.25Z"/>
  </g>
</svg>