<?xml version="1.0" encoding="UTF-8"?>
<svg id="_Слой_2" data-name="Слой 2" xmlns="http://www.w3.org/2000/svg" xmlns:xlink="http://www.w3.org/1999/xlink" viewBox="0 0 250 255.2">
  <defs>
    <style>
      .cls-1, .cls-2 {
        fill: #fff;
      }

      .cls-3 {
        fill: url(#_Безымянный_градиент_43);
      }

      .cls-2 {
        filter: url(#drop-shadow-1);
      }
    </style>
    <linearGradient id="_Безымянный_градиент_43" data-name="Безымянный градиент 43" x1="85.6" y1="102.76" x2="178.51" y2="161.43" gradientUnits="userSpaceOnUse">
      <stop offset="0" stop-color="#fff"/>
      <stop offset=".12" stop-color="#c9c9c9"/>
      <stop offset=".28" stop-color="#878787"/>
      <stop offset=".4" stop-color="#5e5e5e"/>
      <stop offset=".46" stop-color="#4f4f4f"/>
    </linearGradient>
    <filter id="drop-shadow-1" filterUnits="userSpaceOnUse">
      <feOffset dx="7" dy="0"/>
      <feGaussianBlur result="blur" stdDeviation="9"/>
      <feFlood flood-color="#000" flood-opacity=".75"/>
      <feComposite in2="blur" operator="in"/>
      <feComposite in="SourceGraphic"/>
    </filter>
  </defs>
  <g id="_Слой_2-2" data-name=" Слой 2">
    <g>
      <path d="M84.79,250C28.26,250,0,221.74,0,165.21V84.79C0,28.26,28.26,0,84.79,0h80.42c56.53,0,84.79,28.26,84.79,84.79v80.42c0,56.53-28.26,84.79-84.79,84.79H84.79Z"/>
      <g>
        <polygon class="cls-3" points="153.12 80.03 99.75 172.47 43.24 172.47 124.86 31.09 153.12 80.03"/>
        <polygon class="cls-1" points="206.49 172.47 99.75 172.47 153.12 80.03 206.49 172.47"/>
        <polygon class="cls-2" points="157.26 172.53 157.23 172.56 125.13 228.17 93.03 172.56 93.01 172.53 93.03 172.5 125.13 116.9 157.23 172.5 157.26 172.53"/>
      </g>
    </g>
  </g>
</svg>