<svg width="135" height="110" viewBox="0 0 135 110" fill="none" xmlns="http://www.w3.org/2000/svg">
<rect x="7" y="20" width="121" height="90" rx="10" fill="#A7D7E5" fill-opacity="0.3"/>
<rect width="135" height="100" rx="10" fill="#A7D7E5"/>
<path d="M92.9803 25.6874C92.0592 24.8924 90.6124 24.7786 89.1165 25.3899H89.114C87.5407 26.0324 44.5796 44.7874 42.8307 45.5537C42.5126 45.6662 39.7345 46.7212 40.0206 49.0712C40.2761 51.1899 42.5089 52.0674 42.7816 52.1687L53.7036 55.9749C54.4282 58.4299 57.0995 67.4875 57.6902 69.4225C58.0587 70.6287 58.6593 72.2137 59.7118 72.54C60.6354 72.9025 61.554 72.5712 62.1485 72.0962L68.826 65.7925L79.6056 74.3487L79.8623 74.505C80.5943 74.835 81.2955 75 81.9649 75C82.4819 75 82.9781 74.9013 83.4522 74.7037C85.0672 74.0287 85.7132 72.4625 85.7808 72.285L93.8326 29.6886C94.3239 27.4136 93.641 26.2561 92.9803 25.6874ZM63.3361 57.4974L59.6516 67.4975L55.9671 54.9974L84.2149 33.7474L63.3361 57.4974Z" fill="white"/>
</svg>
