<?xml version="1.0" encoding="UTF-8"?>
<svg id="_Слой_2" data-name="Слой 2" xmlns="http://www.w3.org/2000/svg" xmlns:xlink="http://www.w3.org/1999/xlink" viewBox="0 0 540.59 133.29">
  <defs>
    <style>
      .cls-1, .cls-2 {
        fill: #fff;
      }

      .cls-3 {
        fill: url(#_Безымянный_градиент_43);
      }

      .cls-4 {
        font-family: HiraKakuStdN-W8-83pv-RKSJ-H, 'Hiragino Kaku Gothic StdN';
        font-size: 80px;
      }

      .cls-2 {
        filter: url(#drop-shadow-1);
      }
    </style>
    <linearGradient id="_Безымянный_градиент_43" data-name="Безымянный градиент 43" x1="39.81" y1="47.79" x2="83.02" y2="75.08" gradientUnits="userSpaceOnUse">
      <stop offset="0" stop-color="#fff"/>
      <stop offset=".12" stop-color="#c9c9c9"/>
      <stop offset=".28" stop-color="#878787"/>
      <stop offset=".4" stop-color="#5e5e5e"/>
      <stop offset=".46" stop-color="#4f4f4f"/>
    </linearGradient>
    <filter id="drop-shadow-1" filterUnits="userSpaceOnUse">
      <feOffset dx="7" dy="0"/>
      <feGaussianBlur result="blur" stdDeviation="9"/>
      <feFlood flood-color="#000" flood-opacity=".75"/>
      <feComposite in2="blur" operator="in"/>
      <feComposite in="SourceGraphic"/>
    </filter>
  </defs>
  <g id="_Слой_2-2" data-name=" Слой 2">
    <g>
      <g>
        <path d="M39.44,116.27C13.15,116.27,0,103.13,0,76.84V39.44C0,13.15,13.15,0,39.44,0h37.4c26.29,0,39.44,13.15,39.44,39.44v37.4c0,26.29-13.15,39.44-39.44,39.44H39.44Z"/>
        <g>
          <polygon class="cls-3" points="71.22 37.22 46.4 80.21 20.11 80.21 58.07 14.46 71.22 37.22"/>
          <polygon class="cls-1" points="96.04 80.21 46.4 80.21 71.22 37.22 96.04 80.21"/>
          <polygon class="cls-2" points="73.14 80.24 73.13 80.26 58.2 106.12 43.27 80.26 43.26 80.24 43.27 80.23 58.2 54.37 73.13 80.23 73.14 80.24"/>
        </g>
      </g>
      <text class="cls-4" transform="translate(136.6 86.5)"><tspan x="0" y="0">AutoReg</tspan></text>
    </g>
  </g>
</svg>